<svg width="24" height="25" viewBox="0 0 24 25" fill="none" xmlns="http://www.w3.org/2000/svg">
<path d="M16.475 5.90783L18.592 8.02483M17.836 4.04283L12.109 9.76983C11.8131 10.0653 11.6113 10.4418 11.529 10.8518L11 13.4998L13.648 12.9698C14.058 12.8878 14.434 12.6868 14.73 12.3908L20.457 6.66383C20.6291 6.49173 20.7656 6.28742 20.8588 6.06256C20.9519 5.83771 20.9998 5.59671 20.9998 5.35333C20.9998 5.10994 20.9519 4.86895 20.8588 4.64409C20.7656 4.41923 20.6291 4.21492 20.457 4.04283C20.2849 3.87073 20.0806 3.73421 19.8557 3.64108C19.6309 3.54794 19.3899 3.5 19.1465 3.5C18.9031 3.5 18.6621 3.54794 18.4373 3.64108C18.2124 3.73421 18.0081 3.87073 17.836 4.04283Z" stroke="#1A1A1A" stroke-width="2" stroke-linecap="round" stroke-linejoin="round"/>
<path d="M19 15.5V18.5C19 19.0304 18.7893 19.5391 18.4142 19.9142C18.0391 20.2893 17.5304 20.5 17 20.5H6C5.46957 20.5 4.96086 20.2893 4.58579 19.9142C4.21071 19.5391 4 19.0304 4 18.5V7.5C4 6.96957 4.21071 6.46086 4.58579 6.08579C4.96086 5.71071 5.46957 5.5 6 5.5H9" stroke="#1A1A1A" stroke-width="2" stroke-linecap="round" stroke-linejoin="round"/>
</svg>
